<svg xmlns="http://www.w3.org/2000/svg" viewBox="-1.78814e-7 0 16 16">
	<path d="M15.592 1.532L11.914.092 11.679 0l-.236.092L8 1.439 4.554.092 4.321 0l-.234.092-3.68 1.44-.407.16v12.617l.408.159 3.679 1.44.234.092.234-.092L8 14.561l3.445 1.347.234.092.235-.092 3.678-1.44.408-.16V1.693l-.408-.16zM11.68.688l3.68 1.441v5.206l-3.68-1.44V.688zM8.234 7.93l3.445-1.348 3.445 1.348.176.068-.176.069-3.445 1.347-3.445-1.347-.175-.069.175-.068zM4.321.688L8 2.129v5.206l-3.68-1.44V.687zM.876 7.93l3.445-1.348 3.445 1.348.175.068-.175.069-3.445 1.347L.876 8.068l-.175-.069.175-.068zm-.233 5.94V8.661l3.68 1.44v5.206L.642 13.87zm7.358 0V8.661l3.68 1.44v5.206L8 13.87z" fill="#000000"/>
</svg>